#!OML:ASF H:\Terrain\Walking\May29\JustinRory\rory.ASF
:FULLY-SPECIFIED
:DEGREES
1393
root 6.82224 18.9734 9.33795 -174.29 0.499584 -179.973
lowerback 0.119879 0.486224 -1.94274
upperback 0.786683 0.667642 -0.308401
thorax 0.719814 0.32719 0.77619
lowerneck -10.7447 -2.73999 -2.64285
upperneck 9.52447 -3.45088 1.2696
head 4.68097 -1.72227 0.572722
rclavicle -8.62228e-015 9.93923e-016
rhumerus -18.5778 28.3253 -100.514
rradius 117.786
rwrist -9.57675
rhand -25.0646 57.6369
rfingers 7.12502
rthumb 1.44922 -332.338
lclavicle -8.62228e-015 9.93923e-016
lhumerus -19.9712 -33.912 102.82
lradius 119.754
lwrist 21.4751
lhand -33.612 20.0611
lfingers 7.12502
lthumb -6.80505 49.9318
rfemur -4.17097 10.6706 17.2941
rtibia 6.60651
rfoot -3.13448 -19.8742
rtoes 16.4923
lfemur -3.6247 -7.84912 -15.7455
ltibia 7.28998
lfoot -9.53861 15.0347
ltoes -6.24933
1394
root 6.82244 18.9699 9.34519 -174.227 0.351656 -179.965
lowerback 0.228666 0.475258 -1.87302
upperback 0.723543 0.649233 -0.34324
thorax 0.595805 0.319863 0.700018
lowerneck -10.9505 -2.67824 -2.46987
upperneck 9.87605 -3.3705 1.03868
head 4.81523 -1.69269 0.474101
rclavicle -5.59082e-015 5.76476e-015
rhumerus -19.2493 30.6799 -101.659
rradius 116.099
rwrist -4.89926
rhand -31.1462 58.7068
rfingers 7.12502
rthumb -4.42431 -331.227
lclavicle -5.59082e-015 5.76476e-015
lhumerus -20.3099 -35.817 103.733
lradius 118.975
lwrist 20.6908
lhand -32.9829 20.4833
lfingers 7.12502
lthumb -6.19775 50.3726
rfemur -3.87805 10.5174 17.2675
rtibia 5.88607
rfoot -2.94092 -19.7461
rtoes 17.6316
lfemur -4.10539 -7.98807 -15.682
ltibia 7.96067
lfoot -9.91308 14.9082
ltoes -5.72771
1395
root 6.8227 18.9673 9.34978 -174.241 0.240662 -179.887
lowerback 0.370491 0.436989 -1.79252
upperback 0.722144 0.594154 -0.291652
thorax 0.516521 0.293085 0.706365
lowerneck -11.2546 -2.63053 -2.46964
upperneck 10.1668 -3.28772 0.911259
head 4.95226 -1.6607 0.434721
rclavicle 3.18055e-015 -1.59028e-015
rhumerus -19.6544 32.6365 -102.506
rradius 114.754
rwrist -3.10834
rhand -33.0907 61.0963
rfingers 7.12502
rthumb -6.30182 -328.79
lclavicle 3.18055e-015 -1.59028e-015
lhumerus -20.4434 -37.7312 104.53
lradius 118.372
lwrist 19.817
lhand -32.1951 21.5852
lfingers 7.12502
lthumb -5.43707 51.4955
rfemur -3.47235 10.413 17.3336
rtibia 5.08526
rfoot -2.59425 -19.625
rtoes 18.1012
lfemur -4.43946 -8.08649 -15.5282
ltibia 8.53493
lfoot -10.3636 14.6923
ltoes -4.65568
1396
root 6.82219 18.9857 9.34783 -174.207 0.263983 -179.778
lowerback 0.4058 0.419599 -1.67674
upperback 0.706428 0.568501 -0.220762
thorax 0.481624 0.280476 0.713674
lowerneck -11.7068 -2.5733 -2.50638
upperneck 10.5876 -3.18008 0.760718
head 5.15473 -1.62043 0.393365
rclavicle 8.19987e-016 0
rhumerus -19.8248 33.9497 -103.138
rradius 113.483
rwrist -4.60565
rhand -30.2064 68.5199
rfingers 7.12502
rthumb -3.51682 -321.431
lclavicle 8.19987e-016 0
lhumerus -20.6319 -39.6621 105.377
lradius 117.756
lwrist 19.5481
lhand -32.6637 22.1871
lfingers 7.12502
lthumb -5.88953 52.0853
rfemur -3.27362 10.446 17.4417
rtibia 4.5884
rfoot -2.13015 -19.6887
rtoes 17.6182
lfemur -4.66853 -8.04322 -15.3325
ltibia 8.90866
lfoot -10.7031 14.4908
ltoes -3.30003
1397
root 6.82073 19.0009 9.34682 -174.168 0.22364 -179.759
lowerback 0.44849 0.454009 -1.57017
upperback 0.648716 0.612529 -0.258712
thorax 0.399006 0.303773 0.614445
lowerneck -11.8306 -2.56289 -2.51153
upperneck 10.7825 -3.16638 0.765422
head 5.2361 -1.61482 0.393754
rclavicle 5.64051e-015 1.98785e-016
rhumerus -19.7964 34.238 -103.508
rradius 112.678
rwrist -9.8556
rhand -20.9363 77.7527
rfingers 7.12502
rthumb 5.43585 -312.158
lclavicle 5.64051e-015 1.98785e-016
lhumerus -21.2308 -41.5784 106.316
lradius 117.182
lwrist 19.832
lhand -34.1148 24.5711
lfingers 7.12502
lthumb -7.29038 54.4255
rfemur -3.12815 10.4059 17.4592
rtibia 4.22745
rfoot -1.70962 -19.7247
rtoes 17.0966
lfemur -4.88051 -8.07553 -15.2706
ltibia 9.24414
lfoot -10.864 14.3825
ltoes -3.25469
1398
root 6.81832 18.9887 9.35 -174.16 0.115859 -179.838
lowerback 0.517896 0.496909 -1.55322
upperback 0.646251 0.669732 -0.341687
thorax 0.357507 0.333436 0.519286
lowerneck -11.9143 -2.57394 -2.50324
upperneck 10.7878 -3.19004 0.853482
head 5.25339 -1.61887 0.416931
rclavicle -2.48481e-015 -1.27222e-014
rhumerus -19.1631 33.013 -103.275
rradius 112.862
rwrist -22.0064
rhand 1.19576 86.3774
rfingers 7.12502
rthumb 26.7352 -301.754
lclavicle -2.48481e-015 -1.27222e-014
lhumerus -21.9108 -42.6122 107.122
lradius 117.079
lwrist 21.1347
lhand -33.6037 31.02
lfingers 7.12502
lthumb -6.79705 60.8909
rfemur -2.84977 10.2894 17.3814
rtibia 3.75811
rfoot -1.61268 -19.6169
rtoes 17.2554
lfemur -5.1249 -8.19191 -15.3634
ltibia 9.59672
lfoot -10.8655 14.4215
ltoes -4.4769
1399
root 6.81633 18.9742 9.35252 -174.101 0.0884303 -179.894
lowerback 0.537038 0.488545 -1.60873
upperback 0.725508 0.660557 -0.345316
thorax 0.427552 0.328369 0.54696
lowerneck -12.6131 -2.52271 -2.5645
upperneck 11.0904 -3.09118 0.870361
head 5.46435 -1.5685 0.429691
rclavicle 5.71506e-016 8.94531e-015
rhumerus -19.1119 32.785 -103.455
rradius 113.38
rwrist -26.8867
rhand 11.2755 87.6302
rfingers 7.12502
rthumb 36.3351 -298.603
lclavicle 5.71506e-016 8.94531e-015
lhumerus -22.1638 -42.2102 107.563
lradius 117.416
lwrist 23.4159
lhand -37.5785 28.4408
lfingers 7.12502
lthumb -10.6327 58.1518
rfemur -2.78477 10.2532 17.3134
rtibia 3.57221
rfoot -1.71805 -19.5308
rtoes 17.7186
lfemur -5.32528 -8.22338 -15.4496
ltibia 9.77882
lfoot -10.713 14.5852
ltoes -6.31008
1400
root 6.81241 18.9785 9.35255 -174.087 -0.000799949 -179.919
lowerback 0.611477 0.458158 -1.57593
upperback 0.803268 0.621323 -0.358169
thorax 0.466763 0.309031 0.515277
lowerneck -13.417 -2.45035 -2.64224
upperneck 11.5047 -2.96182 0.911722
head 5.72873 -1.50266 0.454464
rclavicle 2.08724e-015 1.39149e-015
rhumerus -19.5803 32.302 -103.816
rradius 113.983
rwrist -28.1084
rhand 14.4885 88.1455
rfingers 7.12502
rthumb 39.3699 -297.268
lclavicle 2.08724e-015 1.39149e-015
lhumerus -22.4522 -41.4348 107.931
lradius 117.953
lwrist 25.263
lhand -38.0402 23.9802
lfingers 7.12502
lthumb -11.0781 53.6679
rfemur -3.04923 10.1599 17.275
rtibia 4.05674
rfoot -1.84117 -19.6088
rtoes 16.736
lfemur -5.2536 -8.31519 -15.4862
ltibia 9.64121
lfoot -10.6721 14.5967
ltoes -6.52401
1401
root 6.80606 18.9855 9.35039 -174.135 -0.093706 -179.962
lowerback 0.734557 0.456171 -1.49815
upperback 0.862824 0.589216 -0.396957
thorax 0.460252 0.28124 0.431254
lowerneck -13.8687 -2.34596 -2.54892
upperneck 11.6069 -2.80338 0.776652
head 5.83044 -1.42888 0.405481
rclavicle 4.22417e-016 -3.97569e-016
rhumerus -19.9798 31.6061 -104.196
rradius 114.316
rwrist -26.3184
rhand 11.196 88.1253
rfingers 7.12502
rthumb 36.2598 -298.127
lclavicle 4.22417e-016 -3.97569e-016
lhumerus -22.8147 -40.8267 108.299
lradius 118.49
lwrist 25.1823
lhand -36.5132 22.4637
lfingers 7.12502
lthumb -9.60497 52.2247
rfemur -3.23891 10.0628 17.2152
rtibia 4.5159
rfoot -1.80897 -19.6699
rtoes 15.1738
lfemur -5.07509 -8.41699 -15.5446
ltibia 9.44322
lfoot -10.6824 14.5597
ltoes -5.945
1402
root 6.80231 18.9787 9.34457 -174.092 0.033255 -180.008
lowerback 0.674467 0.444512 -1.56579
upperback 0.947901 0.606999 -0.371453
thorax 0.580106 0.301887 0.49626
lowerneck -14.2257 -2.23547 -2.50789
upperneck 11.4723 -2.62034 0.606763
head 5.84166 -1.34715 0.359021
rclavicle 5.69021e-015 -4.77083e-015
rhumerus -19.9414 31.2201 -104.317
rradius 114.55
rwrist -23.0255
rhand 4.23238 86.8232
rfingers 7.12502
rthumb 29.6375 -300.829
lclavicle 5.69021e-015 -4.77083e-015
lhumerus -22.9426 -39.8707 108.473
lradius 118.711
lwrist 23.0914
lhand -34.0753 23.4458
lfingers 7.12502
lthumb -7.25229 53.3015
rfemur -3.33471 10.1819 17.1449
rtibia 4.65175
rfoot -2.06255 -19.6223
rtoes 16.681
lfemur -4.99139 -8.29646 -15.6486
ltibia 9.20691
lfoot -10.3934 14.7406
ltoes -8.06466
1403
root 6.79924 18.9736 9.33675 -173.995 0.195092 -179.985
lowerback 0.508215 0.480168 -1.59282
upperback 1.00213 0.658133 -0.323842
thorax 0.72694 0.325696 0.561916
lowerneck -14.5402 -2.1938 -2.65437
upperneck 11.4379 -2.52967 0.670954
head 5.8847 -1.30188 0.408482
rclavicle -2.73329e-016 -3.37934e-015
rhumerus -19.9522 31.1429 -104.364
rradius 114.828
rwrist -19.5926
rhand -3.12191 83.9952
rfingers 7.12502
rthumb 22.597 -304.702
lclavicle -2.73329e-016 -3.37934e-015
lhumerus -23.0307 -38.8653 108.376
lradius 118.738
lwrist 21.1712
lhand -31.8295 23.6146
lfingers 7.12502
lthumb -5.08408 53.5336
rfemur -3.68267 10.3415 17.145
rtibia 5.16649
rfoot -2.61556 -19.6043
rtoes 18.432
lfemur -4.79514 -8.1305 -15.6844
ltibia 8.68044
lfoot -9.97861 15.0238
ltoes -10.027
